<?xml version="1.0" encoding="UTF-8" standalone="no"?>
<svg
   xmlns:dc="http://purl.org/dc/elements/1.1/"
   xmlns:cc="http://creativecommons.org/ns#"
   xmlns:rdf="http://www.w3.org/1999/02/22-rdf-syntax-ns#"
   xmlns:svg="http://www.w3.org/2000/svg"
   xmlns="http://www.w3.org/2000/svg"
   xmlns:sodipodi="http://sodipodi.sourceforge.net/DTD/sodipodi-0.dtd"
   xmlns:inkscape="http://www.inkscape.org/namespaces/inkscape"
   width="1792"
   height="1792"
   viewBox="0 0 1792 1792"
   version="1.1"
   id="svg4"
   sodipodi:docname="mastodon.svg"
   inkscape:version="0.92.2 2405546, 2018-03-11">
  <metadata
     id="metadata10">
    <rdf:RDF>
      <cc:Work
         rdf:about="">
        <dc:format>image/svg+xml</dc:format>
        <dc:type
           rdf:resource="http://purl.org/dc/dcmitype/StillImage" />
        <dc:title></dc:title>
      </cc:Work>
    </rdf:RDF>
  </metadata>
  <defs
     id="defs8" />
  <sodipodi:namedview
     pagecolor="#ffffff"
     bordercolor="#666666"
     borderopacity="1"
     objecttolerance="10"
     gridtolerance="10"
     guidetolerance="10"
     inkscape:pageopacity="0"
     inkscape:pageshadow="2"
     inkscape:window-width="1920"
     inkscape:window-height="1012"
     id="namedview6"
     showgrid="false"
     inkscape:zoom="0.18624688"
     inkscape:cx="2447.147"
     inkscape:cy="159.18706"
     inkscape:window-x="0"
     inkscape:window-y="0"
     inkscape:window-maximized="1"
     inkscape:current-layer="svg4" />
  <g
     id="g852"
     transform="translate(-62.22321,23.879)">
    <path
       id="path9548"
       d="m 999.99312,939.2444 a 43.563991,43.563991 0 0 0 -87.1264,0 39.521242,39.521242 0 0 0 4.1011,17.9312 40.581081,40.581081 0 0 0 8.7122,12.8103 43.315159,43.315159 0 0 0 61.5014,0 48.952273,48.952273 0 0 0 9.2252,-12.8103 44.236758,44.236758 0 0 0 3.5881,-17.9312 m -74.3147,-174.2022 a 43.481047,43.481047 0 1 0 61.5014,61.4814 57.139146,57.139146 0 0 0 7.1731,-8.7091 43.149271,43.149271 0 0 0 5.6371,-22.0309 41.9174,41.9174 0 0 0 -12.8102,-30.7384 43.376599,43.376599 0 0 0 -7.6892,-6.1439 41.407449,41.407449 0 0 0 -23.063,-6.6602 41.94812,41.94812 0 0 0 -30.7507,12.8103 m 30.7507,-156.2648 a 43.739095,43.739095 0 1 0 30.7507,12.8102 41.94812,41.94812 0 0 0 -30.7507,-12.8102 m -410.0072,376.5639 a 43.284439,43.284439 0 1 0 12.8133,30.7384 41.945048,41.945048 0 0 0 -12.8133,-30.7415 m -61.5014,-143.4623 a 43.548631,43.548631 0 0 0 30.7507,74.2901 41.407449,41.407449 0 0 0 23.063,-6.6601 43.399639,43.399639 0 0 0 7.6877,-6.144 41.9174,41.9174 0 0 0 12.8133,-30.7399 43.146199,43.146199 0 0 0 -5.6371,-22.0308 57.154506,57.154506 0 0 0 -7.1731,-8.7091 43.315159,43.315159 0 0 0 -61.5014,0 m 61.5014,-143.4623 a 43.315159,43.315159 0 0 0 -61.5014,0 40.588762,40.588762 0 0 0 -8.7137,12.8102 39.521242,39.521242 0 0 0 -4.1012,17.9297 43.491799,43.491799 0 0 0 74.3116,30.7477 41.9174,41.9174 0 0 0 12.8134,-30.7384 44.236758,44.236758 0 0 0 -3.5881,-17.9313 48.952273,48.952273 0 0 0 -9.2253,-12.8103 m 845.64408,274.1037 a 43.739095,43.739095 0 1 0 30.7506,12.8102 41.94812,41.94812 0 0 0 -30.7506,-12.8102 m 30.7506,-130.6475 a 43.315159,43.315159 0 0 0 -61.5013,0 57.139146,57.139146 0 0 0 -7.1762,8.7091 43.149271,43.149271 0 0 0 -5.6371,22.0309 41.9174,41.9174 0 0 0 12.8133,30.7399 43.388887,43.388887 0 0 0 7.6876,6.144 41.410521,41.410521 0 0 0 23.0631,6.6601 43.468759,43.468759 0 0 0 30.7506,-74.2902 m -70.7266,-130.6474 a 44.236758,44.236758 0 0 0 -3.588,17.9297 43.563991,43.563991 0 0 0 87.1264,0 39.521242,39.521242 0 0 0 -4.098,-17.9312 40.591834,40.591834 0 0 0 -8.7122,-12.8102 43.315159,43.315159 0 0 0 -61.5014,0 48.936914,48.936914 0 0 0 -9.2268,12.8148 z"
       inkscape:connector-curvature="0"
       style="fill:#000000;fill-opacity:1;stroke-width:1.53599858" />
    <path
       sodipodi:nodetypes="cscscccsccscscccsccccccccccscscccscsccccsccs"
       id="path9550"
       d="m 1726.2227,104.1215 h -768.25598 -767.743 v 767.9997 c 0,212.1091 0,601.5536 0,767.9993 340.9453,0 555.9053,0 767.743,0 212.17968,0 399.44798,0 768.25598,0 0,-212.2429 0,-555.8878 0,-767.999 z M 518.23182,1192.847 h -5.1256 c -44.076,0 -81.6604,-15.3702 -112.7531,-46.1107 -30.7507,-31.0825 -46.126,-68.654 -46.126,-112.7146 v -321.7518 -1.023 c 1.3671,-42.0116 16.7424,-77.7046 46.126,-107.0791 31.0927,-31.0783 68.6771,-46.6175 112.7531,-46.6175 44.0759,0 81.4893,15.5412 112.24,46.6237 30.0677,29.7165 45.614,65.751 46.6391,108.1035 v 337.1134 c 2.3921,56.3578 26.3091,104.1786 71.751,143.4623 z M 1112.7446,956.1404 c -1.024,42.3526 -16.5703,78.3871 -46.639,108.1036 -30.7507,31.0814 -68.16398,46.6226 -112.23998,46.6237 -44.076,0 -81.6604,-15.5412 -112.7531,-46.6237 -29.3887,-29.3745 -44.7641,-65.0675 -46.126,-107.0791 V 634.3948 c 0,-44.0627 15.3753,-81.6342 46.126,-112.7147 31.0927,-30.7405 68.6771,-46.1107 112.7531,-46.1107 h 230.63018 c -45.4431,39.2806 -69.3601,87.1014 -71.7512,143.4623 z m 440.761,77.8751 c 0,44.0627 -15.3754,81.6343 -46.1261,112.7147 -31.0927,30.7404 -68.677,46.1106 -112.753,46.1106 h -230.6302 c 45.4431,-39.2806 69.3601,-87.1013 71.7511,-143.4622 V 712.2729 c 1.024,-42.3547 16.5704,-78.3892 46.6391,-108.1035 30.7507,-31.0835 68.164,-46.6253 112.24,-46.6253 44.076,0 81.6603,15.5412 112.753,46.6237 29.3888,29.3755 44.7642,65.069 46.1261,107.0806 z"
       inkscape:connector-curvature="0"
       style="fill:#000000;fill-opacity:1;stroke-width:1.53599858" />
  </g>
</svg>
