<?xml version="1.0" encoding="UTF-8" standalone="no"?>
<!-- Created with Inkscape (http://www.inkscape.org/) -->

<svg
   xmlns:dc="http://purl.org/dc/elements/1.1/"
   xmlns:cc="http://creativecommons.org/ns#"
   xmlns:rdf="http://www.w3.org/1999/02/22-rdf-syntax-ns#"
   xmlns:svg="http://www.w3.org/2000/svg"
   xmlns="http://www.w3.org/2000/svg"
   xmlns:sodipodi="http://sodipodi.sourceforge.net/DTD/sodipodi-0.dtd"
   xmlns:inkscape="http://www.inkscape.org/namespaces/inkscape"
   width="1792"
   height="1792"
   viewBox="0 0 474.13332 474.13335"
   version="1.1"
   id="svg35"
   inkscape:version="0.92.1 r"
   sodipodi:docname="other.svg">
  <defs
     id="defs29" />
  <sodipodi:namedview
     id="base"
     pagecolor="#ffffff"
     bordercolor="#666666"
     borderopacity="1.0"
     inkscape:pageopacity="0.0"
     inkscape:pageshadow="2"
     inkscape:zoom="0.175"
     inkscape:cx="-1172.6916"
     inkscape:cy="945.67099"
     inkscape:document-units="mm"
     inkscape:current-layer="layer1"
     showgrid="false"
     units="px"
     inkscape:window-width="1920"
     inkscape:window-height="1016"
     inkscape:window-x="0"
     inkscape:window-y="30"
     inkscape:window-maximized="1" />
  <metadata
     id="metadata32">
    <rdf:RDF>
      <cc:Work
         rdf:about="">
        <dc:format>image/svg+xml</dc:format>
        <dc:type
           rdf:resource="http://purl.org/dc/dcmitype/StillImage" />
        <dc:title></dc:title>
      </cc:Work>
    </rdf:RDF>
  </metadata>
  <g
     inkscape:label="Layer 1"
     inkscape:groupmode="layer"
     id="layer1"
     transform="translate(0,177.13335)">
    <g
       id="g123"
       transform="matrix(12.611552,0,0,12.611552,-2117.7653,-911.38118)">
      <path
         id="path7270-2"
         sodipodi:nodetypes="ccccsccccc"
         style="color:#000000;font-style:normal;font-variant:normal;font-weight:normal;font-stretch:normal;font-size:medium;line-height:normal;font-family:Sans;-inkscape-font-specification:Sans;text-indent:0;text-align:start;text-decoration:none;text-decoration-line:none;letter-spacing:normal;word-spacing:normal;text-transform:none;writing-mode:lr-tb;direction:ltr;baseline-shift:baseline;text-anchor:start;display:inline;overflow:visible;visibility:visible;fill:#000000;fill-opacity:1;stroke:none;stroke-width:4.70222473;marker:none;enable-background:accumulate"
         inkscape:connector-curvature="0"
         d="m 167.9272,86.39573 c 0.009,-0.52697 0.26436,-1.24766 0.71425,-1.65586 l 5.08242,-4.97599 c 0.54696,-0.57259 1.84948,-0.68784 2.37707,-0.36854 0.18926,0.005 2.66959,1.48417 3.02854,2.03468 1.44981,2.22366 -0.80893,4.29623 -2.76002,3.63682 l -0.82188,-0.49773 -3.76723,3.69533 c -1.49808,1.23751 -3.97686,0.21678 -3.85324,-1.86861 z" />
      <path
         id="path3908-63"
         sodipodi:nodetypes="sccccccssccccss"
         style="color:#000000;font-style:normal;font-variant:normal;font-weight:normal;font-stretch:normal;font-size:medium;line-height:normal;font-family:Sans;-inkscape-font-specification:Sans;text-indent:0;text-align:start;text-decoration:none;text-decoration-line:none;letter-spacing:normal;word-spacing:normal;text-transform:none;writing-mode:lr-tb;direction:ltr;text-anchor:start;display:inline;overflow:visible;visibility:visible;fill:#000000;fill-opacity:1;fill-rule:nonzero;stroke:none;stroke-width:7.05333757;marker:none;enable-background:accumulate"
         inkscape:connector-curvature="0"
         d="m 195.2405,58.46066 c 0.91613,-0.23857 1.85909,-0.26043 2.75233,-0.1902 l -3.19681,5.42143 c -0.65695,1.1141 -0.2886,2.51736 0.83178,3.16866 l 2.05558,1.19496 c 1.12035,0.65125 2.53311,0.28335 3.19008,-0.83075 l 3.19678,-5.42143 c 0.49898,0.73896 0.94127,1.5661 1.18014,2.47612 1.1433,4.35558 -1.48458,8.81216 -5.86955,9.95407 -0.91616,0.23857 -1.85909,0.26044 -2.75233,0.19021 l -1.8859,2.62055 -8.01663,-0.0529 c 0,0 3.5704,-6.05964 3.82512,-6.10048 -0.49898,-0.73896 -0.94125,-1.5661 -1.18012,-2.47612 -1.14332,-4.35558 1.48456,-8.81221 5.86953,-9.95412 z" />
      <path
         id="path42972-6"
         style="color:#000000;display:inline;overflow:visible;visibility:visible;fill:#000000;fill-opacity:1;fill-rule:nonzero;stroke:none;stroke-width:2.35111237;marker:none;enable-background:accumulate"
         inkscape:connector-curvature="0"
         d="m 176.38387,59.87246 c -0.54029,0.11074 -1.04215,0.3079 -1.54066,0.5143 -0.0393,1.46787 0.20408,3.38977 -0.36682,3.89403 -0.56102,0.49555 -2.43773,0.0807 -3.88832,-0.0736 -0.30846,0.55602 -0.55232,1.14084 -0.73366,1.76334 1.12242,0.93071 2.67754,1.97261 2.7145,2.71847 0.0374,0.75516 -1.47062,1.89239 -2.49439,2.93889 0.2427,0.60619 0.58724,1.16037 0.95373,1.68986 1.42814,-0.2972 3.20783,-0.87823 3.81496,-0.44083 0.61815,0.44535 0.62262,2.36369 0.80702,3.82056 0.58585,0.17633 1.20318,0.24569 1.8341,0.29389 0.66052,-1.30398 1.3321,-3.103 2.05422,-3.30626 0.74128,-0.20854 2.26207,1.07712 3.52149,1.83681 0.51346,-0.35643 0.96944,-0.79246 1.39393,-1.24903 -0.59594,-1.34558 -1.69287,-3.03744 -1.39393,-3.74708 0.29923,-0.7103 2.28994,-1.10415 3.66823,-1.61639 0.009,-0.17281 0.0734,-0.33889 0.0734,-0.51431 0,-0.44993 -0.0809,-0.89105 -0.14671,-1.3225 -1.42291,-0.3781 -3.44452,-0.56732 -3.81496,-1.24903 -0.36797,-0.67714 0.56763,-2.49547 1.02711,-3.89403 -0.47227,-0.41986 -0.98465,-0.7927 -1.54066,-1.10208 -1.17593,0.88197 -2.54564,2.33785 -3.30141,2.20417 -0.74394,-0.13166 -1.55625,-1.92686 -2.34766,-3.15931 -0.0943,0.0165 -0.20008,-0.0188 -0.29346,0 z m 1.46728,4.40833 c 2.188,0 3.9617,1.77632 3.9617,3.96751 0,2.19119 -1.7737,3.9675 -3.9617,3.9675 -2.18797,0 -3.96167,-1.77631 -3.96167,-3.9675 0,-2.19119 1.7737,-3.96751 3.96167,-3.96751 z" />
      <path
         id="rect7268-7"
         sodipodi:nodetypes="ccccccc"
         style="color:#bebebe;display:inline;overflow:visible;visibility:visible;fill:#000000;fill-opacity:1;fill-rule:nonzero;stroke:none;stroke-width:4.70222473;marker:none;enable-background:accumulate"
         inkscape:connector-curvature="0"
         d="m 174.96911,79.34249 h 23.47668 l 0.0188,14.25362 c 0,1.15722 -1.10965,2.20417 -2.33848,2.20417 h -18.79059 c -1.26553,0 -2.34765,-1.01013 -2.34765,-2.35111 z" />
      <path
         id="path6196"
         sodipodi:nodetypes="ccccsccccc"
         style="color:#000000;font-style:normal;font-variant:normal;font-weight:normal;font-stretch:normal;font-size:medium;line-height:normal;font-family:Sans;-inkscape-font-specification:Sans;text-indent:0;text-align:start;text-decoration:none;text-decoration-line:none;letter-spacing:normal;word-spacing:normal;text-transform:none;writing-mode:lr-tb;direction:ltr;baseline-shift:baseline;text-anchor:start;display:inline;overflow:visible;visibility:visible;fill:#000000;fill-opacity:1;stroke:none;stroke-width:4.70222473;marker:none;enable-background:accumulate"
         inkscape:connector-curvature="0"
         d="m 205.44837,86.34192 c -0.009,-0.52698 -0.26436,-1.24767 -0.71424,-1.65587 l -5.08243,-4.97599 c -0.54696,-0.57259 -1.84948,-0.68784 -2.37704,-0.36853 -0.18927,0.005 -2.66962,1.48416 -3.02854,2.03467 -1.44984,2.22366 0.8089,4.29624 2.75999,3.63682 l 0.82188,-0.49773 3.76724,3.69534 c 1.49808,1.23751 3.97686,0.21701 3.85323,-1.86862 z" />
    </g>
  </g>
</svg>
