<?xml version="1.0" encoding="UTF-8" standalone="no"?>
<!-- Created with Inkscape (http://www.inkscape.org/) -->

<svg
   xmlns:dc="http://purl.org/dc/elements/1.1/"
   xmlns:cc="http://creativecommons.org/ns#"
   xmlns:rdf="http://www.w3.org/1999/02/22-rdf-syntax-ns#"
   xmlns:svg="http://www.w3.org/2000/svg"
   xmlns="http://www.w3.org/2000/svg"
   xmlns:sodipodi="http://sodipodi.sourceforge.net/DTD/sodipodi-0.dtd"
   xmlns:inkscape="http://www.inkscape.org/namespaces/inkscape"
   width="1000"
   height="1000"
   viewBox="0 0 264.58332 264.58334"
   version="1.1"
   id="svg8"
   inkscape:version="0.92.2 2405546, 2018-03-11"
   sodipodi:docname="solus.svg">
  <defs
     id="defs2" />
  <sodipodi:namedview
     id="base"
     pagecolor="#ffffff"
     bordercolor="#666666"
     borderopacity="1.0"
     inkscape:pageopacity="0.0"
     inkscape:pageshadow="2"
     inkscape:zoom="0.35355339"
     inkscape:cx="505.13336"
     inkscape:cy="532.81654"
     inkscape:document-units="px"
     inkscape:current-layer="layer1"
     showgrid="false"
     units="px"
     inkscape:window-width="1920"
     inkscape:window-height="1012"
     inkscape:window-x="0"
     inkscape:window-y="0"
     inkscape:window-maximized="1" />
  <metadata
     id="metadata5">
    <rdf:RDF>
      <cc:Work
         rdf:about="">
        <dc:format>image/svg+xml</dc:format>
        <dc:type
           rdf:resource="http://purl.org/dc/dcmitype/StillImage" />
        <dc:title></dc:title>
      </cc:Work>
    </rdf:RDF>
  </metadata>
  <g
     inkscape:label="Layer 1"
     inkscape:groupmode="layer"
     id="layer1"
     transform="translate(0,-32.416655)">
    <path
       inkscape:connector-curvature="0"
       style="fill:#000000;fill-opacity:1;stroke:none;stroke-width:6.01035404;stroke-miterlimit:4;stroke-dasharray:none;stroke-opacity:1"
       d="m 82.205404,32.419194 c -1.979575,6.466195 -4.081135,12.89256 -6.249027,19.294998 A 128.22087,128.22087 0 0 0 0.06387174,168.65391 128.22087,128.22087 0 0 0 5.7220475,206.18344 c -1.2159278,2.18356 -2.4274637,4.37054 -3.6546739,6.54638 l -2.00350186,4.00693 3.08737216,1.59256 c 2.1140546,0.9815 4.7740575,1.71319 8.1233491,2.44564 a 128.22087,128.22087 0 0 0 10.748974,19.56494 c 44.4614,3.79559 94.280743,5.6481 137.248173,-0.59441 35.1178,-5.10254 65.41461,-15.67349 85.19361,-34.32092 0.25518,-0.23625 0.50128,-0.47401 0.75116,-0.71254 0.38012,-0.36724 0.75493,-0.73827 1.12695,-1.11128 1.83328,-1.82639 3.52209,-3.69791 5.0752,-5.59555 0.12797,-0.15599 0.26048,-0.30894 0.38769,-0.46569 0.39602,-0.49142 0.77523,-0.98505 1.15429,-1.47905 0.19385,-0.2514 0.39678,-0.49749 0.58684,-0.75116 a 128.22087,128.22087 0 0 0 0.004,-0.0303 c 3.69201,-4.93451 6.59053,-9.94164 8.96454,-14.60719 l 2.00342,-4.00693 -4.00685,-4.00685 c -1.25984,-1.32678 -2.60654,-2.59829 -4.00693,-3.83474 a 128.22087,128.22087 0 0 0 0,-0.17189 A 128.22087,128.22087 0 0 0 128.28481,40.430552 128.22087,128.22087 0 0 0 92.883957,45.52135 C 87.824129,38.08941 83.829392,32.901007 82.205404,32.416696 Z m 4.006928,18.031063 c 10.259665,18.048932 19.473698,30.234258 29.586088,46.337691 0,0 0,0.004 0,0.004 3.37026,5.366882 6.84063,11.169682 10.48289,17.768772 1.45392,16.8252 7.17721,103.69725 7.79472,111.72368 -4.32261,-0.35286 -27.1425,-2.18902 -56.014458,-5.18856 -15.739972,-1.63542 -31.952065,-3.49172 -45.116842,-5.37255 -0.01514,-0.002 -0.02272,-0.002 -0.03786,-0.004 L 12.08193,210.7264 c 5.901543,-10.42723 12.671303,-22.33398 19.709797,-35.1621 3.519209,-6.4141 7.103765,-13.05877 10.682415,-19.86238 17.89325,-34.01826 35.594699,-72.029296 43.735539,-105.251656 z m 50.086258,68.117393 c 0,0 54.27227,42.72724 77.68853,95.19129 -0.10676,0.44373 -0.1999,0.88041 -0.32105,1.33042 -27.89554,13.49424 -53.56822,11.75993 -69.35385,11.66467 11.314,-29.05195 11.29651,-68.40703 -8.01378,-108.18638 z m 38.08903,24.04922 c 9.9617,2.73807 21.2804,6.19761 32.03179,10.00941 19.19838,6.80663 37.03969,16.1238 47.55453,25.57923 -5.97332,10.90027 -15.02736,23.34675 -30.51344,31.12784 1.14634,-11.21428 -1.85789,-21.22724 -7.58732,-30.18867 -2.51871,-4.50949 -5.68642,-8.71397 -9.45377,-12.49419 -8.47234,-8.50135 -19.60431,-15.7112 -31.31176,-23.54446 -0.24307,-0.16356 -0.47629,-0.3256 -0.72011,-0.48916 z m 73.75596,71.4395 c -21.5527,18.98265 -52.91846,29.20733 -87.62752,34.25035 -41.65526,6.05223 -88.780296,4.67146 -131.566445,1.28347 a 128.22087,128.22087 0 0 0 99.335195,47.28459 128.22087,128.22087 0 0 0 119.85877,-82.81841 z M 22.410955,240.97776 a 128.22087,128.22087 0 0 0 0.152957,0.21505 c -0.053,-0.0757 -0.102981,-0.14235 -0.152957,-0.21505 z"
       id="circle4804-0" />
    <circle
       style="fill:#500000;fill-opacity:0;stroke:none;stroke-width:6.01035404;stroke-miterlimit:4;stroke-dasharray:none;stroke-opacity:1"
       id="circle4812-0"
       cx="128.43517"
       cy="168.50383"
       r="128.37126"
       inkscape:export-xdpi="90"
       inkscape:export-ydpi="90" />
    <path
       sodipodi:nodetypes="ccccc"
       inkscape:connector-curvature="0"
       id="path4814-1"
       d="m 160.50879,248.30415 c -43.57054,6.14824 -87.951907,4.62398 -131.675786,1.27961 28.13709,35.88282 77.039226,53.9656 122.210506,45.24996 43.59538,-7.49328 81.80768,-39.41907 97.2007,-80.83982 -25.8884,18.36363 -56.47446,29.50923 -87.73542,34.31025 z"
       style="fill:#000000;fill-opacity:1;stroke:none;stroke-width:6.01035404;stroke-miterlimit:4;stroke-dasharray:none;stroke-opacity:1" />
  </g>
</svg>
