<?xml version="1.0" encoding="UTF-8" standalone="no"?>
<!-- Created with Inkscape (http://www.inkscape.org/) -->

<svg
   xmlns:dc="http://purl.org/dc/elements/1.1/"
   xmlns:cc="http://creativecommons.org/ns#"
   xmlns:rdf="http://www.w3.org/1999/02/22-rdf-syntax-ns#"
   xmlns:svg="http://www.w3.org/2000/svg"
   xmlns="http://www.w3.org/2000/svg"
   xmlns:sodipodi="http://sodipodi.sourceforge.net/DTD/sodipodi-0.dtd"
   xmlns:inkscape="http://www.inkscape.org/namespaces/inkscape"
   width="1000"
   height="1000"
   viewBox="0 0 264.58332 264.58334"
   version="1.1"
   id="svg8"
   inkscape:version="0.92.2 2405546, 2018-03-11"
   sodipodi:docname="solus.svg">
  <defs
     id="defs2" />
  <sodipodi:namedview
     id="base"
     pagecolor="#ffffff"
     bordercolor="#666666"
     borderopacity="1.0"
     inkscape:pageopacity="0.0"
     inkscape:pageshadow="2"
     inkscape:zoom="0.25"
     inkscape:cx="400.68203"
     inkscape:cy="204.23889"
     inkscape:document-units="px"
     inkscape:current-layer="layer1"
     showgrid="false"
     units="px"
     inkscape:window-width="1920"
     inkscape:window-height="1012"
     inkscape:window-x="0"
     inkscape:window-y="0"
     inkscape:window-maximized="1" />
  <metadata
     id="metadata5">
    <rdf:RDF>
      <cc:Work
         rdf:about="">
        <dc:format>image/svg+xml</dc:format>
        <dc:type
           rdf:resource="http://purl.org/dc/dcmitype/StillImage" />
        <dc:title></dc:title>
      </cc:Work>
    </rdf:RDF>
  </metadata>
  <g
     inkscape:label="Layer 1"
     inkscape:groupmode="layer"
     id="layer1"
     transform="translate(0,-32.416655)">
    <rect
       style="opacity:1;fill:#000000;fill-opacity:0.99607843;stroke:none;stroke-width:2.71192408;stroke-linecap:round;stroke-linejoin:round;stroke-miterlimit:4;stroke-dasharray:none;stroke-opacity:1"
       id="rect7038"
       width="264.58334"
       height="264.58334"
       x="0"
       y="32.416641"
       rx="1.0991592" />
    <g
       id="g7046"
       transform="matrix(7.5720997,0,0,7.5720997,-1518.0667,-1245.7108)">
      <path
         id="circle4804-0"
         d="m 211.33796,168.79466 c -0.26143,0.85395 -0.53897,1.70264 -0.82527,2.54817 a 16.933331,16.933331 0 0 0 -10.02265,15.4435 16.933331,16.933331 0 0 0 0.74724,4.95629 c -0.16058,0.28837 -0.32058,0.57719 -0.48265,0.86454 l -0.26459,0.52917 0.40773,0.21032 c 0.27919,0.12962 0.63048,0.22625 1.0728,0.32298 a 16.933331,16.933331 0 0 0 1.41955,2.58382 c 5.87174,0.50126 12.45107,0.74591 18.12551,-0.0785 4.63779,-0.67386 8.6389,-2.0699 11.25099,-4.53255 0.0337,-0.0312 0.0662,-0.0626 0.0992,-0.0941 0.0502,-0.0485 0.0997,-0.0975 0.14883,-0.14676 0.24211,-0.2412 0.46514,-0.48836 0.67025,-0.73897 0.0169,-0.0206 0.0344,-0.0408 0.0512,-0.0615 0.0523,-0.0649 0.10238,-0.13009 0.15244,-0.19533 0.0256,-0.0332 0.0524,-0.0657 0.0775,-0.0992 a 16.933331,16.933331 0 0 0 5.3e-4,-0.004 c 0.48758,-0.65167 0.87037,-1.31293 1.18389,-1.92908 l 0.26458,-0.52917 -0.52916,-0.52916 c -0.16638,-0.17522 -0.34423,-0.34314 -0.52917,-0.50643 a 16.933331,16.933331 0 0 0 0,-0.0227 16.933331,16.933331 0 0 0 -16.93333,-16.93333 16.933331,16.933331 0 0 0 -4.67517,0.67231 c -0.66822,-0.98149 -1.19578,-1.66669 -1.41025,-1.73065 z m 0.52917,2.38125 c 1.35493,2.38361 2.57177,3.99285 3.90725,6.11953 0,0 0,5.3e-4 0,5.3e-4 0.44509,0.70877 0.9034,1.47511 1.38441,2.34661 0.19201,2.222 0.94785,13.69465 1.0294,14.75465 -0.57086,-0.0466 -3.58454,-0.28909 -7.39748,-0.68522 -2.07868,-0.21598 -4.21971,-0.46113 -5.9583,-0.70952 -0.002,-2.4e-4 -0.003,-2.9e-4 -0.005,-5.3e-4 l -2.75022,-0.65938 c 0.77938,-1.37706 1.67342,-2.94951 2.60295,-4.64364 0.46476,-0.84707 0.93815,-1.72459 1.41076,-2.6231 2.36305,-4.49258 4.70077,-9.51246 5.77588,-13.89993 z m 6.61458,8.99584 c 0,0 7.1674,5.64272 10.25984,12.57132 -0.0141,0.0586 -0.0264,0.11627 -0.0424,0.1757 -3.68399,1.7821 -7.07442,1.55306 -9.15913,1.54048 1.49417,-3.83671 1.49186,-9.03409 -1.05833,-14.2875 z m 5.03018,3.17603 c 1.31558,0.3616 2.81037,0.81848 4.23024,1.32188 2.53541,0.89891 4.8916,2.12937 6.28023,3.37809 -0.78886,1.43953 -1.98457,3.08326 -4.02972,4.11086 0.15139,-1.481 -0.24536,-2.80335 -1.00201,-3.98683 -0.33263,-0.59554 -0.75097,-1.1508 -1.2485,-1.65003 -1.11889,-1.12272 -2.58902,-2.07488 -4.13515,-3.10937 -0.0321,-0.0216 -0.0629,-0.043 -0.0951,-0.0646 z m 9.74049,9.43457 c -2.84633,2.50692 -6.98861,3.85723 -11.57242,4.52323 -5.50115,0.79928 -11.72466,0.61693 -17.37516,0.1695 a 16.933331,16.933331 0 0 0 13.11858,6.24458 16.933331,16.933331 0 0 0 15.829,-10.93731 z m -29.8111,3.55534 a 16.933331,16.933331 0 0 0 0.0202,0.0284 c -0.007,-0.01 -0.0136,-0.0188 -0.0202,-0.0284 z"
         style="fill:#ffffff;fill-opacity:1;stroke:none;stroke-width:0.79374999;stroke-miterlimit:4;stroke-dasharray:none;stroke-opacity:1"
         inkscape:connector-curvature="0" />
      <circle
         inkscape:export-ydpi="90"
         inkscape:export-xdpi="90"
         r="16.953192"
         cy="186.76651"
         cx="217.44324"
         id="circle4812-0"
         style="fill:#500000;fill-opacity:0;stroke:none;stroke-width:0.79374999;stroke-miterlimit:4;stroke-dasharray:none;stroke-opacity:1" />
      <path
         style="fill:#ffffff;fill-opacity:1;stroke:none;stroke-width:0.79374999;stroke-miterlimit:4;stroke-dasharray:none;stroke-opacity:1"
         d="m 221.679,197.30524 c -5.75409,0.81196 -11.61526,0.61066 -17.3896,0.16899 3.71589,4.73882 10.17409,7.1269 16.13958,5.97588 5.75737,-0.98959 10.80383,-5.20583 12.83669,-10.67601 -3.41892,2.42517 -7.45823,3.8971 -11.58667,4.53114 z"
         id="path4814-1"
         inkscape:connector-curvature="0"
         sodipodi:nodetypes="ccccc" />
    </g>
  </g>
</svg>
