<?xml version="1.0" encoding="UTF-8"?>
<svg width="1792" height="1792" version="1.1" viewBox="0 0 1792 1792" xmlns="http://www.w3.org/2000/svg">
<g transform="translate(-62.223 23.879)" stroke-width="1.536">
<path d="m999.99 939.24a43.564 43.564 0 0 0-87.126 0 39.521 39.521 0 0 0 4.1011 17.931 40.581 40.581 0 0 0 8.7122 12.81 43.315 43.315 0 0 0 61.501 0 48.952 48.952 0 0 0 9.2252-12.81 44.237 44.237 0 0 0 3.5881-17.931m-74.315-174.2a43.481 43.481 0 1 0 61.501 61.481 57.139 57.139 0 0 0 7.1731-8.7091 43.149 43.149 0 0 0 5.6371-22.031 41.917 41.917 0 0 0-12.81-30.738 43.377 43.377 0 0 0-7.6892-6.1439 41.407 41.407 0 0 0-23.063-6.6602 41.948 41.948 0 0 0-30.751 12.81m30.751-156.26a43.739 43.739 0 1 0 30.751 12.81 41.948 41.948 0 0 0-30.751-12.81m-410.01 376.56a43.284 43.284 0 1 0 12.813 30.738 41.945 41.945 0 0 0-12.813-30.742m-61.501-143.46a43.549 43.549 0 0 0 30.751 74.29 41.407 41.407 0 0 0 23.063-6.6601 43.4 43.4 0 0 0 7.6877-6.144 41.917 41.917 0 0 0 12.813-30.74 43.146 43.146 0 0 0-5.6371-22.031 57.155 57.155 0 0 0-7.1731-8.7091 43.315 43.315 0 0 0-61.501 0m61.501-143.46a43.315 43.315 0 0 0-61.501 0 40.589 40.589 0 0 0-8.7137 12.81 39.521 39.521 0 0 0-4.1012 17.93 43.492 43.492 0 0 0 74.312 30.748 41.917 41.917 0 0 0 12.813-30.738 44.237 44.237 0 0 0-3.5881-17.931 48.952 48.952 0 0 0-9.2253-12.81m845.64 274.1a43.739 43.739 0 1 0 30.751 12.81 41.948 41.948 0 0 0-30.751-12.81m30.751-130.65a43.315 43.315 0 0 0-61.501 0 57.139 57.139 0 0 0-7.1762 8.7091 43.149 43.149 0 0 0-5.6371 22.031 41.917 41.917 0 0 0 12.813 30.74 43.389 43.389 0 0 0 7.6876 6.144 41.411 41.411 0 0 0 23.063 6.6601 43.469 43.469 0 0 0 30.751-74.29m-70.727-130.65a44.237 44.237 0 0 0-3.588 17.93 43.564 43.564 0 0 0 87.126 0 39.521 39.521 0 0 0-4.098-17.931 40.592 40.592 0 0 0-8.7122-12.81 43.315 43.315 0 0 0-61.501 0 48.937 48.937 0 0 0-9.2268 12.815z"/>
<path d="m1726.2 104.12h-1536v768 768h767.74 768.26v-768zm-1208 1088.7h-5.1256c-44.076 0-81.66-15.37-112.75-46.111-30.751-31.082-46.126-68.654-46.126-112.71v-322.77c1.3671-42.012 16.742-77.705 46.126-107.08 31.093-31.078 68.677-46.618 112.75-46.618 44.076 0 81.489 15.541 112.24 46.624 30.068 29.716 45.614 65.751 46.639 108.1v337.11c2.3921 56.358 26.309 104.18 71.751 143.46zm594.51-236.71c-1.024 42.353-16.57 78.387-46.639 108.1-30.751 31.081-68.164 46.623-112.24 46.624-44.076 0-81.66-15.541-112.75-46.624-29.389-29.374-44.764-65.068-46.126-107.08v-322.77c0-44.063 15.375-81.634 46.126-112.71 31.093-30.74 68.677-46.111 112.75-46.111h230.63c-45.443 39.281-69.36 87.101-71.751 143.46zm440.76 77.875c0 44.063-15.375 81.634-46.126 112.71-31.093 30.74-68.677 46.111-112.75 46.111h-230.63c45.443-39.281 69.36-87.101 71.751-143.46v-337.11c1.024-42.355 16.57-78.389 46.639-108.1 30.751-31.084 68.164-46.625 112.24-46.625s81.66 15.541 112.75 46.624c29.389 29.376 44.764 65.069 46.126 107.08z"/>
</g>
</svg>
