<?xml version="1.0" encoding="UTF-8"?>
<svg width="1792" height="1792" version="1.1" viewBox="0 0 474.13 474.13" xmlns="http://www.w3.org/2000/svg">
<g transform="translate(0 177.13)">
<g transform="matrix(12.612 0 0 12.612 -2117.8 -911.38)">
<path d="m167.93 86.396c9e-3 -0.52697 0.26436-1.2477 0.71425-1.6559l5.0824-4.976c0.54696-0.57259 1.8495-0.68784 2.3771-0.36854 0.18926 5e-3 2.6696 1.4842 3.0285 2.0347 1.4498 2.2237-0.80893 4.2962-2.76 3.6368l-0.82188-0.49773-3.7672 3.6953c-1.4981 1.2375-3.9769 0.21678-3.8532-1.8686z" color="#000000" style="text-decoration-line:none;text-indent:0;text-transform:none"/>
<g>
<path d="m195.24 58.461c0.91613-0.23857 1.8591-0.26043 2.7523-0.1902l-3.1968 5.4214c-0.65695 1.1141-0.2886 2.5174 0.83178 3.1687l2.0556 1.195c1.1204 0.65125 2.5331 0.28335 3.1901-0.83075l3.1968-5.4214c0.49898 0.73896 0.94127 1.5661 1.1801 2.4761 1.1433 4.3556-1.4846 8.8122-5.8696 9.9541-0.91616 0.23857-1.8591 0.26044-2.7523 0.19021l-1.8859 2.6206-8.0166-0.0529s3.5704-6.0596 3.8251-6.1005c-0.49898-0.73896-0.94125-1.5661-1.1801-2.4761-1.1433-4.3556 1.4846-8.8122 5.8695-9.9541z" color="#000000" style="text-decoration-line:none;text-indent:0;text-transform:none"/>
<path d="m176.38 59.872c-0.54029 0.11074-1.0422 0.3079-1.5407 0.5143-0.0393 1.4679 0.20408 3.3898-0.36682 3.894-0.56102 0.49555-2.4377 0.0807-3.8883-0.0736-0.30846 0.55602-0.55232 1.1408-0.73366 1.7633 1.1224 0.93071 2.6775 1.9726 2.7145 2.7185 0.0374 0.75516-1.4706 1.8924-2.4944 2.9389 0.2427 0.60619 0.58724 1.1604 0.95373 1.6899 1.4281-0.2972 3.2078-0.87823 3.815-0.44083 0.61815 0.44535 0.62262 2.3637 0.80702 3.8206 0.58585 0.17633 1.2032 0.24569 1.8341 0.29389 0.66052-1.304 1.3321-3.103 2.0542-3.3063 0.74128-0.20854 2.2621 1.0771 3.5215 1.8368 0.51346-0.35643 0.96944-0.79246 1.3939-1.249-0.59594-1.3456-1.6929-3.0374-1.3939-3.7471 0.29923-0.7103 2.2899-1.1042 3.6682-1.6164 9e-3 -0.17281 0.0734-0.33889 0.0734-0.51431 0-0.44993-0.0809-0.89105-0.14671-1.3225-1.4229-0.3781-3.4445-0.56732-3.815-1.249-0.36797-0.67714 0.56763-2.4955 1.0271-3.894-0.47227-0.41986-0.98465-0.7927-1.5407-1.1021-1.1759 0.88197-2.5456 2.3378-3.3014 2.2042-0.74394-0.13166-1.5562-1.9269-2.3477-3.1593-0.0943 0.0165-0.20008-0.0188-0.29346 0zm1.4673 4.4083c2.188 0 3.9617 1.7763 3.9617 3.9675s-1.7737 3.9675-3.9617 3.9675c-2.188 0-3.9617-1.7763-3.9617-3.9675s1.7737-3.9675 3.9617-3.9675z" color="#000000"/>
<path d="m174.97 79.342h23.477l0.0188 14.254c0 1.1572-1.1096 2.2042-2.3385 2.2042h-18.791c-1.2655 0-2.3476-1.0101-2.3476-2.3511z" color="#bebebe"/>
</g>
<path d="m205.45 86.342c-9e-3 -0.52698-0.26436-1.2477-0.71424-1.6559l-5.0824-4.976c-0.54696-0.57259-1.8495-0.68784-2.377-0.36853-0.18927 5e-3 -2.6696 1.4842-3.0285 2.0347-1.4498 2.2237 0.8089 4.2962 2.76 3.6368l0.82188-0.49773 3.7672 3.6953c1.4981 1.2375 3.9769 0.21701 3.8532-1.8686z" color="#000000" style="text-decoration-line:none;text-indent:0;text-transform:none"/>
</g>
</g>
</svg>
